<?xml version="1.0" encoding="utf-8"?>
<!-- Generator: Adobe Illustrator 26.3.1, SVG Export Plug-In . SVG Version: 6.00 Build 0)  -->
<svg version="1.1" id="Layer_1" xmlns="http://www.w3.org/2000/svg" xmlns:xlink="http://www.w3.org/1999/xlink" x="0px" y="0px"
	 viewBox="0 0 309.8 83" style="enable-background:new 0 0 309.8 83;" xml:space="preserve">
<style type="text/css">
	.st0{fill:#563C7C;}
	.st1{fill:#C91F4C;}
	.st2{opacity:0.46;}
	.st3{fill:#5B5B5B;}
	.st4{fill:#EF1F25;}
	.st5{fill:#FFFFFF;}
</style>
<g>
	<g>
		<g>
			<path class="st0" d="M39.3,16.9c0,3.2-2.4,5.3-5.7,5.3H30V11.8h3.5C37.1,11.8,39.3,13.6,39.3,16.9z M36.5,16.9
				c0-1.8-1-2.9-2.9-2.9h-0.8v5.9h0.7C35.3,19.9,36.5,18.5,36.5,16.9z"/>
		</g>
		<g>
			<path class="st0" d="M43.1,14.1v1.8h3.5v2.3h-3.5v1.8h4.1v2.3h-6.9V11.8h6.9v2.3H43.1z"/>
		</g>
		<g>
			<path class="st0" d="M48.1,11.8h4.4c2.4,0,3.9,1.5,3.9,3.7c0,2.2-1.5,3.7-3.9,3.7h-1.6v3h-2.8V11.8z M52.1,16.9
				c1.1,0,1.5-0.8,1.5-1.4c0-0.6-0.4-1.4-1.5-1.4h-1.2v2.9H52.1z"/>
		</g>
		<g>
			<path class="st0" d="M57.4,17.9v-6.1h2.8v6.1c0,1.1,0.6,1.9,1.8,1.9c1.2,0,1.8-0.8,1.8-1.9l0-6.1h2.8v6.1c0,2.7-2,4.5-4.5,4.5
				C59.4,22.4,57.4,20.6,57.4,17.9z"/>
		</g>
		<g>
			<path class="st0" d="M73.9,14.2h-2v8h-2.8v-8h-2v-2.4h6.8V14.2z"/>
		</g>
		<g>
			<path class="st0" d="M80.3,20.3h-3.5L76,22.2h-3l4-10.4h3l4,10.4h-3L80.3,20.3z M78.5,15.5l-1,2.8h2.1L78.5,15.5z"/>
		</g>
		<g>
			<path class="st0" d="M94.1,16.9c0,3.2-2.4,5.3-5.7,5.3h-3.5V11.8h3.5C91.9,11.8,94.1,13.6,94.1,16.9z M91.3,16.9
				c0-1.8-1-2.9-2.9-2.9h-0.8v5.9h0.7C90.1,19.9,91.3,18.5,91.3,16.9z"/>
		</g>
		<g>
			<path class="st0" d="M94.6,17c0-3,2.4-5.4,5.4-5.4s5.4,2.4,5.4,5.4s-2.4,5.4-5.4,5.4S94.6,20,94.6,17z M102.6,17
				c0-1.7-0.9-3.1-2.6-3.1c-1.7,0-2.6,1.4-2.6,3.1c0,1.7,0.9,3.1,2.6,3.1C101.7,20.1,102.6,18.7,102.6,17z"/>
		</g>
		<g>
			<path class="st0" d="M112,14.1v1.8h3.5v2.3H112v1.8h4.1v2.3h-6.9V11.8h6.9v2.3H112z"/>
		</g>
		<g>
			<path class="st0" d="M116.6,21.3l1.1-2.1c0.7,0.5,1.7,0.8,2.4,0.8c0.7,0,1.2-0.3,1.2-0.9c0-1.5-4.3-1.3-4.3-4.6
				c0-1.8,1.3-2.9,3.2-2.9c1.8,0,2.9,0.6,3.5,1l-1.1,2c-0.4-0.4-1.2-0.7-1.9-0.7c-0.5,0-0.9,0.2-0.9,0.6c0,1,4.3,1.2,4.3,4.4
				c0,1.9-1.1,3.4-3.8,3.4C118.9,22.4,117.6,22,116.6,21.3z"/>
		</g>
		<g>
			<path class="st0" d="M131.3,14.2h-2v8h-2.8v-8h-2v-2.4h6.8V14.2z"/>
		</g>
		<g>
			<path class="st0" d="M137.6,20.3h-3.5l-0.7,1.9h-3l4-10.4h3l4,10.4h-3L137.6,20.3z M135.8,15.5l-1,2.8h2.1L135.8,15.5z"/>
		</g>
		<g>
			<path class="st0" d="M151.4,16.9c0,3.2-2.4,5.3-5.7,5.3h-3.5V11.8h3.5C149.2,11.8,151.4,13.6,151.4,16.9z M148.6,16.9
				c0-1.8-1-2.9-2.9-2.9h-0.8v5.9h0.7C147.4,19.9,148.6,18.5,148.6,16.9z"/>
		</g>
		<g>
			<path class="st0" d="M152.4,17.9v-6.1h2.8v6.1c0,1.1,0.6,1.9,1.8,1.9c1.2,0,1.8-0.8,1.8-1.9l0-6.1h2.8v6.1c0,2.7-2,4.5-4.5,4.5
				C154.4,22.4,152.4,20.6,152.4,17.9z"/>
		</g>
		<g>
			<path class="st0" d="M169.5,20.3H166l-0.7,1.9h-3l4-10.4h3l4,10.4h-3L169.5,20.3z M167.7,15.5l-1,2.8h2.1L167.7,15.5z"/>
		</g>
		<g>
			<path class="st0" d="M174,11.8h2.8v8.1h3.4v2.3H174V11.8z"/>
		</g>
	</g>
	<g>
		<g>
			<path class="st0" d="M169.9,39.9h-5.7v-8.6h16.2v39.4h-10.5V39.9z"/>
		</g>
		<g>
			<path class="st0" d="M183.5,59.9l9-1.5c0.3,2.3,2.8,4.4,5.5,4.4c3,0,5.3-2,5.3-5c0-3.5-2.3-4.5-6.8-4.5v-6.7
				c3.7,0,5.2-1.2,5.2-4.1c0-2.2-1.8-3.6-4-3.6c-2.3,0-4.1,1.7-4.1,3.9l-8.8-1.6c0.9-7.3,7.1-10.6,13.1-10.6
				c7.3,0,13.2,4.6,13.2,11.2c0,3.2-1.4,5.8-3.8,7.5c4.2,2.1,5.9,5.6,5.9,9.5c0,7.1-6.7,12.5-15,12.5
				C191.5,71.4,184.6,67.7,183.5,59.9z"/>
		</g>
		<g>
			<path class="st0" d="M217.5,39.9h-5.7v-8.6H228v39.4h-10.5V39.9z"/>
		</g>
		<g>
			<path class="st0" d="M247,62.6h-17.4v-8.2l13.7-23.1h14.3v23.1h4.6v8.2h-4.6v8.1H247V62.6z M247,54.4V39.9l-8.6,14.5H247z"/>
		</g>
		<g>
			<path class="st0" d="M263.1,50.8c0-13.6,6.5-20.4,15.9-20.4c9.4,0,15.9,6.9,15.9,20.4c0,13.8-5.9,20.5-15.9,20.5
				C269,71.4,263.1,64.5,263.1,50.8z M284.4,50.8c0-7.2-1.2-11.6-5.4-11.7c-4.2-0.1-5.4,4.6-5.4,11.7c0,7.8,1.2,11.9,5.4,11.9
				C283.2,62.8,284.4,58.5,284.4,50.8z"/>
		</g>
	</g>
	<g>
		<g>
			<path class="st1" d="M44,45h-3.6c-0.7,0-1.2-0.3-1.4-0.8l-2.9-5c-0.1-0.2-0.3-0.4-0.4-0.5c-0.2-0.1-0.4-0.1-0.7-0.1h-1V45h-4
				V27.7h5.6c1.2,0,2.3,0.1,3.2,0.4c0.9,0.3,1.6,0.6,2.2,1.1c0.6,0.5,1,1,1.2,1.6c0.3,0.6,0.4,1.3,0.4,2c0,0.6-0.1,1.1-0.2,1.6
				c-0.1,0.5-0.4,1-0.7,1.4c-0.3,0.4-0.7,0.8-1.1,1.1c-0.4,0.3-0.9,0.6-1.5,0.8c0.3,0.1,0.5,0.3,0.7,0.5c0.2,0.2,0.4,0.4,0.6,0.7
				L44,45z M35.5,35.8c0.5,0,1-0.1,1.4-0.2c0.4-0.1,0.7-0.3,0.9-0.6c0.2-0.2,0.4-0.5,0.5-0.9c0.1-0.3,0.2-0.7,0.2-1.1
				c0-0.8-0.2-1.3-0.7-1.8c-0.5-0.4-1.3-0.6-2.3-0.6h-1.6v5.1H35.5z"/>
			<path class="st1" d="M45,45.5h-4.6c-1.1,0-1.6-0.6-1.9-1l-2.9-5c-0.1-0.1-0.2-0.2-0.3-0.3c0,0-0.1-0.1-0.4-0.1h-0.5v6.4h-5.1
				V27.2h6.2c1.3,0,2.4,0.1,3.3,0.4c0.9,0.3,1.7,0.7,2.3,1.2c0.6,0.5,1.1,1.1,1.4,1.8c0.3,0.7,0.4,1.4,0.4,2.2
				c0,0.6-0.1,1.2-0.2,1.7c-0.2,0.5-0.4,1.1-0.7,1.5c-0.3,0.5-0.7,0.9-1.2,1.3c-0.2,0.2-0.5,0.3-0.7,0.5c0.3,0.2,0.5,0.5,0.7,0.8
				l0,0L45,45.5z M33.3,38h1.6c0.4,0,0.7,0.1,1,0.2c0.2,0.1,0.5,0.4,0.6,0.6l0,0l2.9,5c0.1,0.2,0.4,0.5,1,0.5H43l-3.2-5.2
				c-0.2-0.2-0.3-0.4-0.5-0.6c-0.2-0.2-0.4-0.3-0.6-0.4l-1.1-0.6l1.1-0.4c0.5-0.2,1-0.4,1.3-0.7c0.4-0.3,0.7-0.6,1-1
				c0.3-0.4,0.5-0.8,0.6-1.2c0.1-0.4,0.2-0.9,0.2-1.4c0-0.7-0.1-1.3-0.3-1.8c-0.2-0.5-0.6-1-1.1-1.4c-0.5-0.4-1.2-0.7-2-1
				c-0.8-0.2-1.8-0.4-3-0.4h-5.1v16.1h2.9V38z M35.5,36.4h-2.2v-6.2h2.2c1.2,0,2.1,0.3,2.6,0.8c0.6,0.5,0.9,1.3,0.9,2.2
				c0,0.4-0.1,0.9-0.2,1.2c-0.1,0.4-0.4,0.8-0.7,1.1c-0.3,0.3-0.7,0.5-1.1,0.7C36.6,36.3,36.1,36.4,35.5,36.4z M34.4,35.3h1.1
				c0.5,0,0.9-0.1,1.2-0.2c0.3-0.1,0.6-0.3,0.7-0.4c0.2-0.2,0.3-0.4,0.4-0.6c0.1-0.3,0.1-0.6,0.1-0.9c0-0.6-0.2-1-0.6-1.4
				c-0.4-0.3-1-0.5-1.9-0.5h-1.1V35.3z"/>
		</g>
		<g>
			<path class="st1" d="M62.5,36.3c0,1.2-0.2,2.4-0.6,3.5c-0.4,1.1-1,2-1.8,2.8c-0.8,0.8-1.7,1.4-2.8,1.9c-1.1,0.4-2.3,0.7-3.7,0.7
				c-1.3,0-2.6-0.2-3.7-0.7c-1.1-0.4-2-1.1-2.8-1.9c-0.8-0.8-1.4-1.7-1.8-2.8c-0.4-1.1-0.6-2.2-0.6-3.5c0-1.2,0.2-2.4,0.6-3.5
				c0.4-1.1,1-2,1.8-2.8c0.8-0.8,1.7-1.4,2.8-1.9c1.1-0.4,2.3-0.7,3.7-0.7c1.3,0,2.6,0.2,3.7,0.7c1.1,0.5,2,1.1,2.8,1.9
				c0.8,0.8,1.4,1.7,1.8,2.8C62.3,33.9,62.5,35.1,62.5,36.3z M58.4,36.3c0-0.9-0.1-1.6-0.3-2.3c-0.2-0.7-0.5-1.3-1-1.7
				c-0.4-0.5-0.9-0.8-1.5-1.1c-0.6-0.3-1.3-0.4-2-0.4c-0.8,0-1.5,0.1-2.1,0.4c-0.6,0.3-1.1,0.6-1.5,1.1c-0.4,0.5-0.7,1.1-1,1.7
				c-0.2,0.7-0.3,1.4-0.3,2.3c0,0.9,0.1,1.6,0.3,2.3c0.2,0.7,0.5,1.3,1,1.7c0.4,0.5,0.9,0.8,1.5,1.1c0.6,0.2,1.3,0.4,2.1,0.4
				c0.8,0,1.4-0.1,2-0.4c0.6-0.2,1.1-0.6,1.5-1.1c0.4-0.5,0.7-1.1,1-1.7C58.3,38,58.4,37.2,58.4,36.3z"/>
			<path class="st1" d="M53.6,45.7c-1.4,0-2.7-0.2-3.9-0.7c-1.2-0.5-2.2-1.1-3-2c-0.8-0.8-1.5-1.8-1.9-3c-0.5-1.1-0.7-2.4-0.7-3.7
				c0-1.3,0.2-2.6,0.7-3.7c0.5-1.1,1.1-2.1,1.9-3c0.8-0.8,1.8-1.5,3-2c1.2-0.5,2.5-0.7,3.9-0.7c1.4,0,2.7,0.2,3.9,0.7
				c1.2,0.5,2.2,1.1,3,2c0.8,0.8,1.5,1.8,1.9,3c0.5,1.1,0.7,2.4,0.7,3.7c0,1.3-0.2,2.5-0.7,3.7c-0.5,1.1-1.1,2.1-1.9,3
				c-0.8,0.8-1.8,1.5-3,2C56.3,45.5,55,45.7,53.6,45.7z M53.6,28.1c-1.3,0-2.4,0.2-3.5,0.6c-1,0.4-1.9,1-2.7,1.7
				c-0.7,0.7-1.3,1.6-1.7,2.6c-0.4,1-0.6,2.1-0.6,3.3c0,1.2,0.2,2.3,0.6,3.3c0.4,1,1,1.9,1.7,2.6c0.7,0.7,1.6,1.3,2.7,1.7
				c1,0.4,2.2,0.6,3.5,0.6c1.3,0,2.4-0.2,3.5-0.6c1-0.4,1.9-1,2.6-1.7c0.7-0.7,1.3-1.6,1.7-2.6c0.4-1,0.6-2.1,0.6-3.3
				c0-1.2-0.2-2.3-0.6-3.3c-0.4-1-1-1.9-1.7-2.6c-0.7-0.7-1.6-1.3-2.6-1.7C56,28.3,54.8,28.1,53.6,28.1z M53.6,42.4
				c-0.8,0-1.6-0.1-2.3-0.4c-0.7-0.3-1.3-0.7-1.7-1.2c-0.5-0.5-0.8-1.2-1.1-1.9c-0.2-0.7-0.4-1.6-0.4-2.5c0-0.9,0.1-1.7,0.4-2.5
				c0.2-0.8,0.6-1.4,1.1-1.9c0.5-0.5,1-0.9,1.7-1.2c0.7-0.3,1.4-0.4,2.3-0.4c0.8,0,1.6,0.1,2.3,0.4c0.7,0.3,1.3,0.7,1.7,1.2
				c0.5,0.5,0.8,1.2,1.1,1.9c0.2,0.7,0.4,1.6,0.4,2.5c0,0.9-0.1,1.7-0.4,2.5c-0.2,0.8-0.6,1.4-1.1,1.9c-0.5,0.5-1,0.9-1.7,1.2
				C55.2,42.2,54.4,42.4,53.6,42.4z M53.6,31.4c-0.7,0-1.3,0.1-1.9,0.3c-0.5,0.2-1,0.5-1.3,0.9c-0.4,0.4-0.6,0.9-0.8,1.5
				c-0.2,0.6-0.3,1.3-0.3,2.1c0,0.8,0.1,1.5,0.3,2.1c0.2,0.6,0.5,1.1,0.8,1.5c0.4,0.4,0.8,0.7,1.3,0.9c0.5,0.2,1.2,0.3,1.9,0.3
				c0.7,0,1.3-0.1,1.8-0.3c0.5-0.2,1-0.5,1.3-0.9c0.4-0.4,0.6-0.9,0.8-1.5c0.2-0.6,0.3-1.3,0.3-2.1c0-0.8-0.1-1.5-0.3-2.1
				c-0.2-0.6-0.5-1.1-0.8-1.5c-0.4-0.4-0.8-0.7-1.3-0.9C54.9,31.5,54.3,31.4,53.6,31.4z"/>
		</g>
		<g>
			<path class="st1" d="M81,36.3c0,1.2-0.2,2.4-0.6,3.4c-0.4,1.1-1,2-1.8,2.7c-0.8,0.8-1.7,1.4-2.8,1.8C74.6,44.7,73.4,45,72,45
				h-6.7V27.7H72c1.3,0,2.6,0.2,3.7,0.7c1.1,0.4,2,1,2.8,1.8c0.8,0.8,1.4,1.7,1.8,2.7C80.8,34,81,35.1,81,36.3z M76.9,36.3
				c0-0.9-0.1-1.6-0.3-2.3c-0.2-0.7-0.5-1.3-1-1.7c-0.4-0.5-0.9-0.8-1.5-1.1c-0.6-0.3-1.3-0.4-2-0.4h-2.7v11.1H72
				c0.8,0,1.4-0.1,2-0.4c0.6-0.3,1.1-0.6,1.5-1.1c0.4-0.5,0.7-1.1,1-1.7C76.8,38,76.9,37.2,76.9,36.3z"/>
			<path class="st1" d="M72,45.5h-7.2V27.2H72c1.4,0,2.7,0.2,3.9,0.7c1.2,0.5,2.2,1.1,3,1.9c0.8,0.8,1.5,1.8,1.9,2.9
				c0.5,1.1,0.7,2.3,0.7,3.6c0,1.3-0.2,2.5-0.7,3.7c-0.5,1.1-1.1,2.1-1.9,2.9c-0.8,0.8-1.8,1.5-3,1.9C74.7,45.3,73.4,45.5,72,45.5z
				 M65.9,44.4H72c1.3,0,2.4-0.2,3.5-0.6c1-0.4,1.9-1,2.6-1.7c0.7-0.7,1.3-1.6,1.7-2.6c0.4-1,0.6-2.1,0.6-3.2c0-1.2-0.2-2.2-0.6-3.2
				c-0.4-1-1-1.8-1.7-2.5c-0.7-0.7-1.6-1.3-2.6-1.7c-1-0.4-2.2-0.6-3.5-0.6h-6.2V44.4z M72,42.4h-3.2V30.3H72c0.8,0,1.6,0.1,2.3,0.4
				c0.7,0.3,1.3,0.7,1.7,1.2c0.5,0.5,0.8,1.2,1.1,1.9c0.2,0.7,0.4,1.6,0.4,2.5c0,0.9-0.1,1.7-0.4,2.5c-0.2,0.8-0.6,1.4-1.1,1.9
				c-0.5,0.5-1,1-1.7,1.2C73.6,42.3,72.9,42.4,72,42.4z M69.9,41.3H72c0.7,0,1.3-0.1,1.8-0.3c0.5-0.2,1-0.5,1.3-1
				c0.4-0.4,0.6-0.9,0.8-1.6c0.2-0.6,0.3-1.4,0.3-2.2c0-0.8-0.1-1.5-0.3-2.1c-0.2-0.6-0.5-1.1-0.8-1.6c-0.4-0.4-0.8-0.7-1.3-1
				c-0.5-0.2-1.1-0.3-1.8-0.3h-2.1V41.3z"/>
		</g>
		<g>
			<path class="st1" d="M97.9,45h-3.6c-0.7,0-1.2-0.3-1.4-0.8l-2.9-5c-0.1-0.2-0.3-0.4-0.4-0.5c-0.2-0.1-0.4-0.1-0.7-0.1h-1V45h-4
				V27.7h5.6c1.2,0,2.3,0.1,3.2,0.4c0.9,0.3,1.6,0.6,2.2,1.1c0.6,0.5,1,1,1.2,1.6c0.3,0.6,0.4,1.3,0.4,2c0,0.6-0.1,1.1-0.2,1.6
				c-0.1,0.5-0.4,1-0.7,1.4c-0.3,0.4-0.7,0.8-1.1,1.1c-0.4,0.3-0.9,0.6-1.5,0.8c0.3,0.1,0.5,0.3,0.7,0.5c0.2,0.2,0.4,0.4,0.6,0.7
				L97.9,45z M89.4,35.8c0.5,0,1-0.1,1.4-0.2c0.4-0.1,0.7-0.3,0.9-0.6c0.2-0.2,0.4-0.5,0.5-0.9c0.1-0.3,0.2-0.7,0.2-1.1
				c0-0.8-0.2-1.3-0.7-1.8c-0.5-0.4-1.3-0.6-2.3-0.6h-1.6v5.1H89.4z"/>
			<path class="st1" d="M98.9,45.5h-4.6c-1.1,0-1.6-0.6-1.9-1l-2.9-5c-0.1-0.1-0.2-0.2-0.3-0.3c0,0-0.1-0.1-0.4-0.1h-0.5v6.4h-5.1
				V27.2h6.2c1.3,0,2.4,0.1,3.3,0.4c0.9,0.3,1.7,0.7,2.3,1.2c0.6,0.5,1.1,1.1,1.4,1.8c0.3,0.7,0.4,1.4,0.4,2.2
				c0,0.6-0.1,1.2-0.2,1.7c-0.2,0.5-0.4,1.1-0.7,1.5c-0.3,0.5-0.7,0.9-1.2,1.3c-0.2,0.2-0.5,0.3-0.7,0.5c0.3,0.2,0.5,0.5,0.7,0.8
				l0,0L98.9,45.5z M87.2,38h1.6c0.4,0,0.7,0.1,1,0.2c0.2,0.1,0.5,0.4,0.6,0.6l0,0l2.9,5c0.1,0.2,0.4,0.5,1,0.5h2.6l-3.2-5.2
				c-0.2-0.2-0.3-0.4-0.5-0.6c-0.2-0.2-0.4-0.3-0.6-0.4l-1.1-0.6l1.1-0.4c0.5-0.2,1-0.4,1.3-0.7c0.4-0.3,0.7-0.6,1-1
				c0.3-0.4,0.5-0.8,0.6-1.2c0.1-0.4,0.2-0.9,0.2-1.4c0-0.7-0.1-1.3-0.3-1.8c-0.2-0.5-0.6-1-1.1-1.4c-0.5-0.4-1.2-0.7-2-1
				c-0.8-0.2-1.8-0.4-3-0.4h-5.1v16.1h2.9V38z M89.4,36.4h-2.2v-6.2h2.2c1.2,0,2.1,0.3,2.6,0.8c0.6,0.5,0.9,1.3,0.9,2.2
				c0,0.4-0.1,0.9-0.2,1.2c-0.1,0.4-0.4,0.8-0.7,1.1c-0.3,0.3-0.7,0.5-1.1,0.7C90.5,36.3,90,36.4,89.4,36.4z M88.3,35.3h1.1
				c0.5,0,0.9-0.1,1.2-0.2c0.3-0.1,0.6-0.3,0.7-0.4c0.2-0.2,0.3-0.4,0.4-0.6c0.1-0.3,0.1-0.6,0.1-0.9c0-0.6-0.2-1-0.6-1.4
				c-0.4-0.3-1-0.5-1.9-0.5h-1.1V35.3z"/>
		</g>
		<g>
			<path class="st1" d="M103.8,45h-4V27.7h4V45z"/>
			<path class="st1" d="M104.4,45.5h-5.1V27.2h5.1V45.5z M100.3,44.4h2.9V28.3h-2.9V44.4z"/>
		</g>
		<g>
			<path class="st1" d="M115.9,36h6.1v7.3c-0.9,0.6-1.8,1.1-2.8,1.4c-1,0.3-2,0.4-3.1,0.4c-1.4,0-2.7-0.2-3.9-0.7
				c-1.2-0.4-2.2-1.1-3-1.8c-0.8-0.8-1.5-1.7-1.9-2.8c-0.4-1.1-0.7-2.2-0.7-3.5c0-1.3,0.2-2.5,0.6-3.5s1-2,1.8-2.8
				c0.8-0.8,1.8-1.4,2.9-1.8c1.1-0.4,2.4-0.7,3.8-0.7c0.7,0,1.4,0.1,2,0.2c0.6,0.1,1.2,0.3,1.7,0.5c0.5,0.2,1,0.4,1.5,0.7
				c0.4,0.3,0.8,0.6,1.2,0.9l-1.2,1.8c-0.2,0.3-0.4,0.4-0.7,0.5c-0.3,0.1-0.6,0-0.9-0.2c-0.3-0.2-0.6-0.4-0.9-0.5
				c-0.3-0.1-0.6-0.3-0.9-0.3c-0.3-0.1-0.6-0.1-0.9-0.2c-0.3,0-0.7-0.1-1.1-0.1c-0.7,0-1.4,0.1-2,0.4c-0.6,0.3-1.1,0.6-1.5,1.1
				c-0.4,0.5-0.7,1.1-1,1.7c-0.2,0.7-0.3,1.4-0.3,2.3c0,0.9,0.1,1.7,0.4,2.4c0.3,0.7,0.6,1.3,1.1,1.8c0.5,0.5,1,0.9,1.7,1.1
				c0.6,0.3,1.4,0.4,2.1,0.4c0.5,0,0.9,0,1.3-0.1c0.4-0.1,0.8-0.2,1.1-0.4v-2.6h-1.7c-0.3,0-0.4-0.1-0.6-0.2
				c-0.1-0.1-0.2-0.3-0.2-0.5V36z"/>
			<path class="st1" d="M116.1,45.7c-1.5,0-2.9-0.2-4.1-0.7c-1.2-0.5-2.3-1.1-3.2-2c-0.9-0.8-1.6-1.8-2-3c-0.5-1.1-0.7-2.4-0.7-3.7
				c0-1.3,0.2-2.6,0.7-3.7c0.5-1.1,1.1-2.1,2-3c0.8-0.8,1.9-1.5,3.1-1.9c1.2-0.5,2.5-0.7,4-0.7c0.7,0,1.5,0.1,2.1,0.2
				c0.7,0.1,1.3,0.3,1.8,0.5c0.6,0.2,1.1,0.5,1.6,0.8c0.5,0.3,0.9,0.6,1.3,1l0.3,0.3l-1.4,2.1c-0.3,0.4-0.6,0.6-1,0.7
				c-0.4,0.1-0.9,0-1.3-0.3c-0.3-0.2-0.6-0.3-0.8-0.5c-0.3-0.1-0.5-0.2-0.8-0.3c-0.3-0.1-0.5-0.1-0.8-0.2c-0.3,0-0.6-0.1-1-0.1
				c-0.7,0-1.3,0.1-1.8,0.3c-0.5,0.2-1,0.6-1.3,1c-0.4,0.4-0.7,0.9-0.9,1.5c-0.2,0.6-0.3,1.3-0.3,2.1c0,0.8,0.1,1.6,0.3,2.3
				c0.2,0.6,0.5,1.2,1,1.6c0.4,0.4,0.9,0.8,1.5,1c0.6,0.2,1.2,0.3,1.9,0.3c0.4,0,0.8,0,1.2-0.1c0.2-0.1,0.5-0.1,0.7-0.2v-1.7h-1.2
				c-0.4,0-0.7-0.1-1-0.4c-0.3-0.2-0.4-0.6-0.4-0.9v-2.7h7.2v8.1l-0.2,0.2c-0.9,0.7-1.9,1.2-3,1.5C118.3,45.5,117.2,45.7,116.1,45.7
				z M115.7,28.1c-1.3,0-2.5,0.2-3.6,0.6c-1,0.4-2,1-2.7,1.7c-0.7,0.7-1.3,1.6-1.7,2.6c-0.4,1-0.6,2.1-0.6,3.3
				c0,1.2,0.2,2.3,0.6,3.3c0.4,1,1,1.9,1.8,2.6c0.8,0.7,1.7,1.3,2.8,1.7c1.1,0.4,2.3,0.6,3.7,0.6c1,0,2-0.1,3-0.4
				c0.8-0.2,1.7-0.6,2.4-1.2v-6.4h-5v1.7c0,0.1,0,0.1,0,0.1c0,0,0.2,0.1,0.2,0.1h2.3v3.5l-0.3,0.1c-0.4,0.2-0.8,0.3-1.2,0.4
				c-0.4,0.1-0.9,0.2-1.4,0.2c-0.8,0-1.6-0.1-2.3-0.4c-0.7-0.3-1.3-0.7-1.9-1.3c-0.5-0.5-0.9-1.2-1.2-2c-0.3-0.8-0.4-1.6-0.4-2.6
				c0-0.9,0.1-1.7,0.4-2.4c0.3-0.7,0.6-1.4,1.1-1.9c0.5-0.5,1.1-1,1.7-1.3c0.7-0.3,1.4-0.4,2.2-0.4c0.4,0,0.8,0,1.2,0.1
				c0.4,0,0.7,0.1,1,0.2c0.3,0.1,0.6,0.2,0.9,0.4c0.3,0.1,0.6,0.3,0.9,0.5c0.2,0.1,0.4,0.2,0.5,0.1c0.1,0,0.2-0.1,0.4-0.3l0.9-1.4
				c-0.2-0.2-0.5-0.4-0.8-0.6c-0.4-0.3-0.9-0.5-1.4-0.7c-0.5-0.2-1.1-0.3-1.6-0.5C117.1,28.1,116.4,28.1,115.7,28.1z"/>
		</g>
		<g>
			<path class="st1" d="M142.1,36.3c0,1.2-0.2,2.4-0.6,3.5c-0.4,1.1-1,2-1.8,2.8c-0.8,0.8-1.7,1.4-2.8,1.9c-1.1,0.4-2.3,0.7-3.7,0.7
				c-1.3,0-2.6-0.2-3.7-0.7c-1.1-0.4-2-1.1-2.8-1.9c-0.8-0.8-1.4-1.7-1.8-2.8c-0.4-1.1-0.6-2.2-0.6-3.5c0-1.2,0.2-2.4,0.6-3.5
				c0.4-1.1,1-2,1.8-2.8c0.8-0.8,1.7-1.4,2.8-1.9c1.1-0.4,2.3-0.7,3.7-0.7c1.3,0,2.6,0.2,3.7,0.7c1.1,0.5,2,1.1,2.8,1.9
				c0.8,0.8,1.4,1.7,1.8,2.8C141.9,33.9,142.1,35.1,142.1,36.3z M138,36.3c0-0.9-0.1-1.6-0.3-2.3c-0.2-0.7-0.5-1.3-1-1.7
				c-0.4-0.5-0.9-0.8-1.5-1.1c-0.6-0.3-1.3-0.4-2-0.4c-0.8,0-1.5,0.1-2.1,0.4c-0.6,0.3-1.1,0.6-1.5,1.1c-0.4,0.5-0.7,1.1-1,1.7
				c-0.2,0.7-0.3,1.4-0.3,2.3c0,0.9,0.1,1.6,0.3,2.3c0.2,0.7,0.5,1.3,1,1.7c0.4,0.5,0.9,0.8,1.5,1.1c0.6,0.2,1.3,0.4,2.1,0.4
				c0.8,0,1.4-0.1,2-0.4c0.6-0.2,1.1-0.6,1.5-1.1c0.4-0.5,0.7-1.1,1-1.7C137.9,38,138,37.2,138,36.3z"/>
			<path class="st1" d="M133.1,45.7c-1.4,0-2.7-0.2-3.9-0.7c-1.2-0.5-2.2-1.1-3-2c-0.8-0.8-1.5-1.8-1.9-3c-0.5-1.1-0.7-2.4-0.7-3.7
				c0-1.3,0.2-2.6,0.7-3.7c0.5-1.1,1.1-2.1,1.9-3c0.8-0.8,1.8-1.5,3-2c1.2-0.5,2.5-0.7,3.9-0.7c1.4,0,2.7,0.2,3.9,0.7
				c1.2,0.5,2.2,1.1,3,2c0.8,0.8,1.5,1.8,1.9,3c0.5,1.1,0.7,2.4,0.7,3.7c0,1.3-0.2,2.5-0.7,3.7c-0.5,1.1-1.1,2.1-1.9,3
				c-0.8,0.8-1.8,1.5-3,2C135.8,45.5,134.5,45.7,133.1,45.7z M133.1,28.1c-1.3,0-2.4,0.2-3.5,0.6c-1,0.4-1.9,1-2.7,1.7
				c-0.7,0.7-1.3,1.6-1.7,2.6c-0.4,1-0.6,2.1-0.6,3.3c0,1.2,0.2,2.3,0.6,3.3c0.4,1,1,1.9,1.7,2.6c0.7,0.7,1.6,1.3,2.7,1.7
				c1,0.4,2.2,0.6,3.5,0.6c1.3,0,2.4-0.2,3.5-0.6c1-0.4,1.9-1,2.6-1.7c0.7-0.7,1.3-1.6,1.7-2.6c0.4-1,0.6-2.1,0.6-3.3
				c0-1.2-0.2-2.3-0.6-3.3c-0.4-1-1-1.9-1.7-2.6c-0.7-0.7-1.6-1.3-2.6-1.7C135.6,28.3,134.4,28.1,133.1,28.1z M133.1,42.4
				c-0.8,0-1.6-0.1-2.3-0.4c-0.7-0.3-1.3-0.7-1.7-1.2c-0.5-0.5-0.8-1.2-1.1-1.9c-0.2-0.7-0.4-1.6-0.4-2.5c0-0.9,0.1-1.7,0.4-2.5
				c0.2-0.8,0.6-1.4,1.1-1.9c0.5-0.5,1-0.9,1.7-1.2c0.7-0.3,1.4-0.4,2.3-0.4c0.8,0,1.6,0.1,2.3,0.4c0.7,0.3,1.3,0.7,1.7,1.2
				c0.5,0.5,0.8,1.2,1.1,1.9c0.2,0.7,0.4,1.6,0.4,2.5c0,0.9-0.1,1.7-0.4,2.5c-0.2,0.8-0.6,1.4-1.1,1.9c-0.5,0.5-1,0.9-1.7,1.2
				C134.7,42.2,134,42.4,133.1,42.4z M133.1,31.4c-0.7,0-1.3,0.1-1.9,0.3c-0.5,0.2-1,0.5-1.3,0.9c-0.4,0.4-0.6,0.9-0.8,1.5
				c-0.2,0.6-0.3,1.3-0.3,2.1c0,0.8,0.1,1.5,0.3,2.1c0.2,0.6,0.5,1.1,0.8,1.5c0.4,0.4,0.8,0.7,1.3,0.9c0.5,0.2,1.2,0.3,1.9,0.3
				c0.7,0,1.3-0.1,1.8-0.3c0.5-0.2,1-0.5,1.3-0.9c0.4-0.4,0.6-0.9,0.8-1.5c0.2-0.6,0.3-1.3,0.3-2.1c0-0.8-0.1-1.5-0.3-2.1
				c-0.2-0.6-0.5-1.1-0.8-1.5c-0.4-0.4-0.8-0.7-1.3-0.9C134.4,31.5,133.8,31.4,133.1,31.4z"/>
		</g>
	</g>
	<g>
		<g>
			<path class="st1" d="M47.9,50.3l-7.6,18.9h-4l-7.6-18.9h3.5c0.4,0,0.7,0.1,0.9,0.3c0.2,0.2,0.4,0.4,0.5,0.7l3.7,10.1
				c0.2,0.4,0.3,0.9,0.5,1.4c0.2,0.5,0.3,1.1,0.5,1.6c0.1-0.6,0.3-1.1,0.4-1.6c0.2-0.5,0.3-1,0.5-1.4l3.6-10.1
				c0.1-0.2,0.3-0.5,0.5-0.7c0.2-0.2,0.6-0.3,0.9-0.3H47.9z"/>
			<path class="st1" d="M40.7,69.8h-4.8l-8.1-20.1h4.4c0.5,0,0.9,0.1,1.3,0.4c0.3,0.2,0.6,0.5,0.7,0.9l0,0l3.7,10.1
				c0.1,0.3,0.3,0.7,0.4,1.1c0.1-0.4,0.2-0.7,0.4-1L42.3,51c0.1-0.3,0.4-0.6,0.7-0.9c0.4-0.3,0.8-0.4,1.3-0.4h4.5L40.7,69.8z
				 M36.7,68.6h3.2L47,50.9h-2.7c-0.2,0-0.4,0.1-0.5,0.2c-0.2,0.1-0.3,0.3-0.3,0.4l-3.6,10.1c-0.2,0.4-0.3,0.9-0.5,1.4
				c-0.1,0.5-0.3,1-0.4,1.6l-0.5,2.5l-0.6-2.5c-0.1-0.6-0.3-1.1-0.5-1.6c-0.2-0.5-0.3-1-0.5-1.4l0,0l-3.7-10.1
				c-0.1-0.2-0.2-0.3-0.3-0.4c-0.1-0.1-0.3-0.1-0.6-0.1h-2.6L36.7,68.6z"/>
		</g>
		<g>
			<path class="st1" d="M65.3,69.2h-3.4c-0.4,0-0.7-0.1-0.9-0.3c-0.2-0.2-0.4-0.4-0.5-0.7L59.3,65h-7.2l-1.1,3.3
				c-0.1,0.2-0.3,0.5-0.5,0.7s-0.6,0.3-0.9,0.3h-3.4l7.3-18.9h4.5L65.3,69.2z M58.3,62l-1.8-5.2c-0.1-0.3-0.3-0.7-0.4-1.2
				c-0.1-0.4-0.3-0.9-0.4-1.4c-0.1,0.5-0.3,1-0.4,1.5c-0.1,0.5-0.3,0.8-0.4,1.2L53.1,62H58.3z"/>
			<path class="st1" d="M66.1,69.8h-4.3c-0.5,0-0.9-0.1-1.3-0.4c-0.3-0.2-0.6-0.5-0.7-0.9l0,0l-1-2.9h-6.3l-1,2.9
				c-0.1,0.3-0.4,0.6-0.7,0.9c-0.4,0.3-0.8,0.4-1.3,0.4h-4.3L53,49.7h5.3L66.1,69.8z M61,68.1c0.1,0.2,0.2,0.3,0.3,0.4
				c0.1,0.1,0.3,0.1,0.6,0.1h2.5l-6.9-17.7h-3.7L47,68.6h2.6c0.2,0,0.4-0.1,0.5-0.2c0.2-0.1,0.3-0.3,0.3-0.4l1.3-3.7h8.1L61,68.1z
				 M59.1,62.6h-6.9l2-6c0.1-0.3,0.3-0.7,0.4-1.1c0.1-0.4,0.3-0.9,0.4-1.4l0.5-2.2l0.6,2.2c0.1,0.5,0.3,1,0.4,1.4
				c0.1,0.4,0.3,0.8,0.4,1.1l0,0L59.1,62.6z M53.9,61.4h3.5L55.9,57c-0.1-0.2-0.2-0.5-0.3-0.8c-0.1,0.3-0.2,0.5-0.3,0.8L53.9,61.4z"
				/>
		</g>
		<g>
			<path class="st1" d="M78.7,65.7v3.5H67.2V50.3h4.4v15.4H78.7z"/>
			<path class="st1" d="M79.3,69.8H66.6V49.7h5.6v15.4h7V69.8z M67.8,68.6h10.2v-2.3h-7V50.9h-3.2V68.6z"/>
		</g>
		<g>
			<path class="st1" d="M96.2,50.3l-7.6,18.9h-4L77,50.3h3.5c0.4,0,0.7,0.1,0.9,0.3c0.2,0.2,0.4,0.4,0.5,0.7l3.7,10.1
				c0.2,0.4,0.3,0.9,0.5,1.4c0.2,0.5,0.3,1.1,0.5,1.6c0.1-0.6,0.3-1.1,0.4-1.6c0.2-0.5,0.3-1,0.5-1.4l3.6-10.1
				c0.1-0.2,0.3-0.5,0.5-0.7c0.2-0.2,0.6-0.3,0.9-0.3H96.2z"/>
			<path class="st1" d="M89,69.8h-4.8l-8.1-20.1h4.4c0.5,0,0.9,0.1,1.3,0.4c0.3,0.2,0.6,0.5,0.7,0.9l0,0l3.7,10.1
				c0.1,0.3,0.3,0.7,0.4,1.1c0.1-0.4,0.2-0.7,0.4-1L90.6,51c0.1-0.3,0.4-0.6,0.7-0.9c0.4-0.3,0.8-0.4,1.3-0.4h4.5L89,69.8z M85,68.6
				h3.2l7.1-17.7h-2.7c-0.2,0-0.4,0.1-0.5,0.2c-0.2,0.1-0.3,0.3-0.3,0.4l-3.6,10.1C88,62,87.8,62.5,87.7,63c-0.1,0.5-0.3,1-0.4,1.6
				l-0.5,2.5l-0.6-2.5c-0.1-0.6-0.3-1.1-0.5-1.6c-0.2-0.5-0.3-1-0.5-1.4l0,0l-3.7-10.1c-0.1-0.2-0.2-0.3-0.3-0.4
				c-0.1-0.1-0.3-0.1-0.6-0.1h-2.6L85,68.6z"/>
		</g>
		<g>
			<path class="st1" d="M102.6,53.7v4.4h6v3.3h-6v4.5h7.8v3.4H98.2V50.3h12.2v3.4H102.6z"/>
			<path class="st1" d="M111,69.8H97.6V49.7H111v4.6h-7.8v3.2h6v4.5h-6v3.3h7.8V69.8z M98.8,68.6h11v-2.2H102v-5.7h6v-2h-6v-5.6h7.8
				v-2.2h-11V68.6z"/>
		</g>
		<g>
			<path class="st1" d="M129.1,69.2h-4c-0.7,0-1.3-0.3-1.6-0.8l-3.1-5.5c-0.1-0.2-0.3-0.4-0.5-0.5c-0.2-0.1-0.4-0.2-0.8-0.2H118v7
				h-4.4V50.3h6.2c1.4,0,2.5,0.1,3.5,0.4c1,0.3,1.8,0.7,2.4,1.2c0.6,0.5,1.1,1.1,1.3,1.8c0.3,0.7,0.4,1.4,0.4,2.2
				c0,0.6-0.1,1.2-0.2,1.7c-0.2,0.5-0.4,1.1-0.7,1.5c-0.3,0.5-0.7,0.9-1.2,1.2c-0.5,0.4-1,0.7-1.6,0.9c0.3,0.1,0.6,0.3,0.8,0.6
				c0.3,0.2,0.5,0.5,0.7,0.8L129.1,69.2z M119.8,59.2c0.6,0,1.1-0.1,1.5-0.2c0.4-0.2,0.8-0.4,1-0.6c0.3-0.3,0.5-0.6,0.6-0.9
				c0.1-0.4,0.2-0.7,0.2-1.2c0-0.8-0.3-1.5-0.8-2c-0.5-0.5-1.4-0.7-2.5-0.7H118v5.6H119.8z"/>
			<path class="st1" d="M130.2,69.8h-5.1c-1.2,0-1.8-0.6-2.1-1.1l-3.1-5.5c-0.1-0.1-0.2-0.3-0.3-0.3c0,0-0.2-0.1-0.5-0.1h-0.5v7H113
				V49.7h6.8c1.4,0,2.7,0.2,3.7,0.4c1,0.3,1.9,0.7,2.6,1.3c0.7,0.6,1.2,1.2,1.5,2c0.3,0.8,0.5,1.6,0.5,2.5c0,0.7-0.1,1.3-0.3,1.9
				c-0.2,0.6-0.5,1.2-0.8,1.7c-0.4,0.5-0.8,1-1.3,1.4c-0.2,0.2-0.5,0.4-0.8,0.5c0.3,0.3,0.6,0.6,0.8,0.9l0,0L130.2,69.8z
				 M117.4,61.6h1.7c0.5,0,0.8,0.1,1.1,0.2c0.3,0.2,0.5,0.4,0.7,0.7l0,0l3.1,5.5c0.1,0.2,0.4,0.5,1.1,0.5h2.9l-3.5-5.7
				c-0.2-0.3-0.4-0.5-0.6-0.7c-0.2-0.2-0.4-0.3-0.7-0.5l-1.2-0.6l1.3-0.5c0.6-0.2,1.1-0.5,1.5-0.8c0.4-0.3,0.8-0.7,1.1-1.1
				c0.3-0.4,0.5-0.9,0.6-1.3c0.1-0.5,0.2-1,0.2-1.6c0-0.7-0.1-1.4-0.4-2c-0.2-0.6-0.6-1.1-1.2-1.5c-0.5-0.4-1.3-0.8-2.2-1.1
				c-0.9-0.3-2-0.4-3.3-0.4h-5.6v17.7h3.2V61.6z M119.8,59.8h-2.4V53h2.4c1.3,0,2.3,0.3,2.9,0.8c0.7,0.6,1,1.4,1,2.4
				c0,0.5-0.1,0.9-0.2,1.4c-0.2,0.4-0.4,0.8-0.7,1.2c-0.3,0.3-0.8,0.6-1.3,0.8C121,59.7,120.4,59.8,119.8,59.8z M118.6,58.6h1.2
				c0.5,0,1-0.1,1.3-0.2c0.3-0.1,0.6-0.3,0.8-0.5c0.2-0.2,0.3-0.4,0.4-0.7c0.1-0.3,0.2-0.6,0.2-1c0-0.7-0.2-1.1-0.6-1.5
				c-0.4-0.4-1.1-0.6-2.1-0.6h-1.2V58.6z"/>
		</g>
		<g>
			<path class="st1" d="M148.4,59.7c0,1.4-0.2,2.6-0.7,3.8c-0.5,1.2-1.1,2.2-2,3c-0.9,0.8-1.9,1.5-3.1,2c-1.2,0.5-2.6,0.7-4,0.7
				h-7.4V50.3h7.4c1.5,0,2.8,0.2,4,0.7c1.2,0.5,2.2,1.1,3.1,2c0.9,0.8,1.5,1.8,2,3C148.1,57.1,148.4,58.4,148.4,59.7z M143.9,59.7
				c0-0.9-0.1-1.8-0.4-2.5c-0.2-0.8-0.6-1.4-1-1.9c-0.5-0.5-1-0.9-1.7-1.2c-0.7-0.3-1.4-0.4-2.2-0.4h-2.9v12.2h2.9
				c0.8,0,1.6-0.1,2.2-0.4c0.7-0.3,1.2-0.7,1.7-1.2c0.5-0.5,0.8-1.2,1-1.9C143.8,61.5,143.9,60.7,143.9,59.7z"/>
			<path class="st1" d="M138.5,69.8h-8V49.7h8c1.5,0,3,0.3,4.2,0.8c1.3,0.5,2.4,1.2,3.3,2.1c0.9,0.9,1.6,2,2.1,3.2
				c0.5,1.2,0.8,2.6,0.8,4c0,1.4-0.3,2.8-0.8,4c-0.5,1.2-1.2,2.3-2.1,3.2c-0.9,0.9-2,1.6-3.3,2.1C141.5,69.6,140.1,69.8,138.5,69.8z
				 M131.8,68.6h6.8c1.4,0,2.7-0.2,3.8-0.7c1.1-0.4,2.1-1.1,2.9-1.8c0.8-0.8,1.4-1.7,1.9-2.8c0.4-1.1,0.7-2.3,0.7-3.6
				c0-1.3-0.2-2.5-0.7-3.6c-0.4-1.1-1.1-2-1.9-2.8c-0.8-0.8-1.8-1.4-2.9-1.8c-1.1-0.4-2.4-0.7-3.8-0.7h-6.8V68.6z M138.5,66.4H135
				V53.1h3.5c0.9,0,1.8,0.2,2.5,0.5c0.7,0.3,1.4,0.8,1.9,1.4c0.5,0.6,0.9,1.3,1.2,2.1c0.3,0.8,0.4,1.7,0.4,2.7c0,1-0.1,1.9-0.4,2.7
				c-0.3,0.8-0.7,1.5-1.2,2.1c-0.5,0.6-1.1,1.1-1.9,1.4C140.3,66.3,139.5,66.4,138.5,66.4z M136.2,65.2h2.3c0.8,0,1.4-0.1,2-0.4
				c0.6-0.2,1.1-0.6,1.5-1.1c0.4-0.5,0.7-1,0.9-1.7c0.2-0.7,0.3-1.5,0.3-2.4c0-0.9-0.1-1.7-0.3-2.4c-0.2-0.7-0.5-1.2-0.9-1.7
				c-0.4-0.5-0.9-0.8-1.5-1.1c-0.6-0.2-1.3-0.4-2-0.4h-2.3V65.2z"/>
		</g>
		<g>
			<path class="st1" d="M155.9,53.7v4.4h6v3.3h-6v4.5h7.8v3.4h-12.2V50.3h12.2v3.4H155.9z"/>
			<path class="st1" d="M164.3,69.8h-13.4V49.7h13.4v4.6h-7.8v3.2h6v4.5h-6v3.3h7.8V69.8z M152.1,68.6h11v-2.2h-7.8v-5.7h6v-2h-6
				v-5.6h7.8v-2.2h-11V68.6z"/>
		</g>
	</g>
	<g>
		<g class="st2">
			<g>
				<g>
					<polygon class="st3" points="35.4,52.6 14.6,69.2 14.6,26.6 					"/>
				</g>
			</g>
		</g>
		<g>
			<g>
				<polygon class="st0" points="35.8,47.9 14.6,69.2 14.6,26.6 				"/>
			</g>
		</g>
		<g>
			<g>
				<g>
					<polygon class="st4" points="22.8,51.8 18.2,54.2 19.1,49.1 15.4,45.5 20.5,44.7 22.8,40.1 25.1,44.7 30.2,45.5 26.5,49.1 
						27.4,54.2 					"/>
				</g>
			</g>
			<g>
				<g>
					<g>
						<path class="st5" d="M20,49.9v-3.6h1.4c0.3,0,0.5,0.1,0.7,0.2c0.2,0.1,0.3,0.2,0.4,0.4s0.2,0.4,0.2,0.6c0,0.2,0,0.5-0.1,0.6
							c-0.1,0.2-0.2,0.3-0.4,0.4c-0.2,0.1-0.4,0.2-0.7,0.2h-0.7v1.2H20z M21.4,48.1c0.1,0,0.2,0,0.3-0.1c0.1,0,0.2-0.1,0.2-0.2
							c0.1-0.1,0.1-0.2,0.1-0.3c0-0.1,0-0.2-0.1-0.3c-0.1-0.1-0.1-0.1-0.2-0.2c-0.1,0-0.2-0.1-0.3-0.1h-0.7v1.1H21.4z"/>
					</g>
				</g>
				<g>
					<g>
						<path class="st5" d="M24.8,49.9h-0.7V47H23v-0.6h2.8V47h-1.1V49.9z"/>
					</g>
				</g>
			</g>
		</g>
	</g>
</g>
</svg>
